<?xml version="1.0" encoding="utf-8"?>
<!-- Generator: Adobe Illustrator 18.1.0, SVG Export Plug-In . SVG Version: 6.00 Build 0)  -->
<svg version="1.1" id="Layer_1" xmlns="http://www.w3.org/2000/svg" xmlns:xlink="http://www.w3.org/1999/xlink" x="0px" y="0px"
	 viewBox="0 0 1500 1500" enable-background="new 0 0 1500 1500" xml:space="preserve">
<g>
	<path fill="#74BA72" d="M577.1,468.8c7.3-19.2,26.5-31.9,47-30c20.5,1.9,37.2,16.8,40.9,37.1l75.3,410.4L776,738.1
		c4.9-20.6,23.4-34.1,44.6-34.1h418c-32-253-250.5-455.8-515.4-455.8c-249.7,0-458,176.8-507.9,411.6L64.1,727h141.3h274.1
		L577.1,468.8z M1098.5,512.1c-10.4,20.9-31.4-3.5-31.4-3.5c-59.3-94.1-205.7-188.2-205.7-188.2
		C1014.8,348.2,1109,491.2,1098.5,512.1z"/>
	<path fill="#00ADD2" d="M1242,795H856.8l-77.6,324.9c-5,21.1-24.1,35.3-45.8,34.8c-21.7-0.6-40-16.5-43.9-37.8l-85-463.3L554,787.6
		c-6.8,17.8-23.8,30.4-42.9,30.4H206c25,264,247,469,517.2,469c247.6,0,454.6-172.8,506.7-404.6c107.3-25.7,206.7-87.4,206.7-87.4
		H1242z"/>
	<path fill="#FFFFFE" d="M1067.1,508.6c0,0,20.9,24.4,31.4,3.5c10.5-20.9-83.6-163.8-237-191.7
		C861.5,320.4,1007.9,414.5,1067.1,508.6z"/>
</g>
</svg>
